<svg width="18" height="18" viewBox="0 0 18 18" fill="none" xmlns="http://www.w3.org/2000/svg">
<path d="M9.27508 2.42614C11.5702 2.42614 11.83 2.42614 12.6961 2.46944C13.5189 2.51275 13.9952 2.64266 14.2984 2.77257C14.6881 2.94579 14.9912 3.119 15.2944 3.42213C15.5975 3.72526 15.7707 3.98509 15.9439 4.41813C16.0738 4.72126 16.2037 5.1543 16.247 6.02039C16.2904 6.92978 16.2904 7.1896 16.2904 9.44142C16.2904 11.7365 16.2904 11.9964 16.247 12.8625C16.2037 13.6852 16.0738 14.1616 15.9439 14.4647C15.7707 14.8544 15.5975 15.1576 15.2944 15.4607C14.9912 15.7638 14.7314 15.9371 14.2984 16.1103C13.9952 16.2402 13.5622 16.3701 12.6961 16.4134C11.7867 16.4567 11.5269 16.4567 9.27508 16.4567C6.97995 16.4567 6.72012 16.4567 5.85403 16.4134C5.03125 16.3701 4.55491 16.2402 4.25179 16.1103C3.86205 15.9371 3.55891 15.7638 3.25578 15.4607C2.95265 15.1576 2.77943 14.8978 2.60622 14.4647C2.4763 14.1616 2.3464 13.7285 2.3031 12.8625C2.25979 11.9531 2.25979 11.6932 2.25979 9.44142C2.25979 7.1463 2.25979 6.88647 2.3031 6.02039C2.3464 5.19761 2.4763 4.72126 2.60622 4.41813C2.77943 4.02839 2.95265 3.72526 3.25578 3.42213C3.55891 3.119 3.81874 2.94579 4.25179 2.77257C4.55491 2.64266 4.98795 2.51275 5.85403 2.46944C6.76342 2.42614 7.02326 2.42614 9.27508 2.42614ZM9.27508 0.867188C6.97995 0.867188 6.67682 0.867187 5.76743 0.910491C4.85804 0.953795 4.25178 1.08371 3.68882 1.30023C3.12587 1.51675 2.64952 1.81988 2.17317 2.29622C1.69683 2.77257 1.3937 3.24892 1.17718 3.81187C0.960662 4.37483 0.830752 4.98109 0.787447 5.89048C0.744143 6.79987 0.744141 7.10299 0.744141 9.39812C0.744141 11.6932 0.744143 11.9964 0.787447 12.9058C0.830752 13.8151 0.960662 14.4214 1.17718 14.9844C1.3937 15.5473 1.69683 16.0237 2.17317 16.5C2.64952 16.9764 3.12587 17.2795 3.68882 17.496C4.25178 17.7125 4.85804 17.8424 5.76743 17.8857C6.67682 17.9291 6.97995 17.929 9.27508 17.929C11.5702 17.929 11.8733 17.9291 12.7827 17.8857C13.6921 17.8424 14.2984 17.7125 14.8613 17.496C15.4243 17.2795 15.9006 16.9764 16.377 16.5C16.8533 16.0237 17.1564 15.5473 17.373 14.9844C17.5895 14.4214 17.7194 13.8151 17.7627 12.9058C17.806 11.9964 17.806 11.6932 17.806 9.39812C17.806 7.10299 17.806 6.79987 17.7627 5.89048C17.7194 4.98109 17.5895 4.37483 17.373 3.81187C17.1564 3.24892 16.8533 2.77257 16.377 2.29622C15.9006 1.81988 15.4243 1.51675 14.8613 1.30023C14.2984 1.08371 13.6921 0.953795 12.7827 0.910491C11.9166 0.867187 11.6135 0.867188 9.27508 0.867188Z" fill="#AD2131"/>
<path d="M9.27508 5.02444C6.85004 5.02444 4.90135 6.97312 4.90135 9.39816C4.90135 11.8232 6.85004 13.7719 9.27508 13.7719C11.7001 13.7719 13.6488 11.8232 13.6488 9.39816C13.6488 6.97312 11.7001 5.02444 9.27508 5.02444ZM9.27508 12.2129C7.71613 12.2129 6.417 10.9571 6.417 9.35486C6.417 7.79591 7.67282 6.49678 9.27508 6.49678C10.834 6.49678 12.1331 7.7526 12.1331 9.35486C12.1331 10.9571 10.8773 12.2129 9.27508 12.2129Z" fill="#AD2131"/>
<path d="M14.8613 4.8512C14.8613 5.41415 14.385 5.8905 13.822 5.8905C13.2591 5.8905 12.7827 5.41415 12.7827 4.8512C12.7827 4.28824 13.2591 3.8119 13.822 3.8119C14.385 3.8119 14.8613 4.28824 14.8613 4.8512Z" fill="#AD2131"/>
</svg>
