<svg width="25" height="25" viewBox="0 0 25 25" fill="none" xmlns="http://www.w3.org/2000/svg">
<path d="M24.8411 12.012C24.6178 11.7065 19.2963 4.53125 12.4999 4.53125C5.70343 4.53125 0.381739 11.7065 0.158643 12.0117C-0.052881 12.3016 -0.052881 12.6947 0.158643 12.9845C0.381739 13.2901 5.70343 20.4653 12.4999 20.4653C19.2963 20.4653 24.6178 13.29 24.8411 12.9848C25.0529 12.695 25.0529 12.3016 24.8411 12.012ZM12.4999 18.817C7.49357 18.817 3.15757 14.0546 1.87403 12.4977C3.15591 10.9395 7.48283 6.17959 12.4999 6.17959C17.5059 6.17959 21.8416 10.9411 23.1257 12.4988C21.8438 14.057 17.5169 18.817 12.4999 18.817Z" fill="white"/>
<path d="M12.4998 7.55469C9.7731 7.55469 7.55469 9.7731 7.55469 12.4998C7.55469 15.2264 9.7731 17.4448 12.4998 17.4448C15.2264 17.4448 17.4448 15.2264 17.4448 12.4998C17.4448 9.7731 15.2264 7.55469 12.4998 7.55469ZM12.4998 15.7965C10.6819 15.7965 9.20308 14.3176 9.20308 12.4998C9.20308 10.6819 10.6819 9.20308 12.4998 9.20308C14.3176 9.20308 15.7964 10.6819 15.7964 12.4998C15.7964 14.3176 14.3176 15.7965 12.4998 15.7965Z" fill="white"/>
</svg>
