<svg width="28" height="18" viewBox="0 0 28 18" fill="none" xmlns="http://www.w3.org/2000/svg">
<path fill-rule="evenodd" clip-rule="evenodd" d="M0.50417 1.31224C0.50417 0.846393 0.881813 0.46875 1.34766 0.46875H26.6523C27.1182 0.46875 27.4958 0.846393 27.4958 1.31224C27.4958 1.77808 27.1182 2.15573 26.6523 2.15573H1.34766C0.881813 2.15573 0.50417 1.77808 0.50417 1.31224ZM0.503906 8.99925C0.503906 8.5334 0.881549 8.15576 1.3474 8.15576H26.6521C27.1179 8.15576 27.4955 8.5334 27.4955 8.99925C27.4955 9.4651 27.1179 9.84274 26.6521 9.84274H1.3474C0.881549 9.84274 0.503906 9.4651 0.503906 8.99925ZM1.3474 15.8428C0.881549 15.8428 0.503906 16.2204 0.503906 16.6863C0.503906 17.1521 0.881549 17.5298 1.3474 17.5298H26.6521C27.1179 17.5298 27.4955 17.1521 27.4955 16.6863C27.4955 16.2204 27.1179 15.8428 26.6521 15.8428H1.3474Z" fill="white"/>
</svg>
