<svg width="23" height="22" viewBox="0 0 23 22" fill="none" xmlns="http://www.w3.org/2000/svg">
<path fill-rule="evenodd" clip-rule="evenodd" d="M0.82221 0.388592C1.17369 0.0371265 1.74354 0.0371375 2.095 0.388616L22.1693 20.4637C22.5208 20.8152 22.5208 21.385 22.1693 21.7365C21.8178 22.088 21.248 22.088 20.8965 21.7365L0.822185 1.66138C0.47072 1.30991 0.470731 0.740057 0.82221 0.388592Z" fill="white"/>
<path fill-rule="evenodd" clip-rule="evenodd" d="M22.17 0.388616C22.5215 0.740095 22.5215 1.30994 22.17 1.66141L2.09488 21.7357C1.7434 22.0872 1.17355 22.0872 0.822085 21.7357C0.47062 21.3842 0.470632 20.8144 0.82211 20.4629L20.8972 0.388592C21.2487 0.0371265 21.8185 0.0371375 22.17 0.388616Z" fill="white"/>
</svg>
