<svg width="22" height="23" viewBox="0 0 22 23" fill="none" xmlns="http://www.w3.org/2000/svg">
<path d="M20.5357 14.7852C20.082 14.7852 19.7143 15.1529 19.7143 15.6066V20.5352C19.7143 20.9888 19.3465 21.3566 18.8928 21.3566H2.46433C2.01065 21.3566 1.64289 20.9888 1.64289 20.5352V15.6066C1.64289 15.1529 1.27512 14.7852 0.821444 14.7852C0.367765 14.7852 0 15.1529 0 15.6066V20.5352C0 21.8962 1.1033 22.9995 2.46428 22.9995H18.8929C20.2539 22.9995 21.3572 21.8962 21.3572 20.5352V15.6066C21.3572 15.1529 20.9894 14.7852 20.5357 14.7852Z" fill="white"/>
<path d="M15.3495 14.205C15.0312 13.8976 14.5266 13.8976 14.2083 14.205L11.5017 16.9099V0.821444C11.5017 0.367765 11.1339 0 10.6802 0C10.2265 0 9.85878 0.367765 9.85878 0.821444V16.9099L7.1538 14.205C6.82747 13.8898 6.30747 13.8989 5.99231 14.2251C5.68485 14.5435 5.68485 15.0481 5.99231 15.3664L10.0994 19.4736C10.4198 19.7947 10.9399 19.7954 11.2611 19.4751C11.2616 19.4746 11.2621 19.4741 11.2626 19.4736L15.3697 15.3664C15.6849 15.0401 15.6759 14.5201 15.3495 14.205Z" fill="white"/>
</svg>
