<svg width="30" height="30" viewBox="0 0 30 30" fill="none" xmlns="http://www.w3.org/2000/svg">
<path d="M27.4331 11.3672C27.2907 11.235 27.0945 11.1726 26.8998 11.1949H20.7339V8.68446C20.7339 6.00131 18.4401 3.83778 15.6251 3.83778C12.8101 3.83778 10.5162 6.00131 10.5162 8.68446V11.1949H4.34262L4.33581 11.1949C4.25277 11.1948 4.1528 11.1948 4.06191 11.2153C3.96843 11.2364 3.87271 11.2817 3.8055 11.378C3.66458 11.5133 3.5982 11.7067 3.63131 11.8988L3.63129 11.8988L3.63177 11.9013L5.82965 23.2839L5.82966 23.2839C6.14899 24.9353 7.65126 26.1357 9.41041 26.1631V26.1631H9.41239H21.8376V26.1632L21.8406 26.1631C23.6043 26.122 25.103 24.9124 25.4204 23.2562L25.4204 23.2562L25.2956 23.2321L25.4204 23.256L27.6183 11.9013L27.6183 11.9013L27.6187 11.8988C27.6527 11.7016 27.5818 11.503 27.4331 11.3672ZM27.4331 11.3672C27.4332 11.3674 27.4334 11.3676 27.4336 11.3677L27.347 11.4607L27.4325 11.3668C27.4327 11.3669 27.4329 11.3671 27.4331 11.3672ZM23.9987 23.0689L23.9985 23.0698C23.8132 24.0576 22.9089 24.7885 21.8371 24.7985H9.41292C8.34112 24.7885 7.43679 24.0576 7.25149 23.0698L7.25132 23.0689L5.20021 12.5595H26.0498L23.9987 23.0689ZM11.9425 8.68446C11.9425 6.76776 13.5846 5.20241 15.625 5.20241C17.6654 5.20241 19.3076 6.76776 19.3076 8.68446V11.1949H11.9425V8.68446Z" fill="#AD2131" stroke="#AD2131" stroke-width="0.254121"/>
<path d="M20.0216 17.9736C20.409 17.9736 20.7348 17.6745 20.7348 17.2913V15.6256C20.7348 15.2423 20.409 14.9433 20.0216 14.9433C19.6343 14.9433 19.3085 15.2423 19.3085 15.6256V17.2913C19.3085 17.2913 19.3085 17.2913 19.3085 17.2913C19.3084 17.6746 19.6344 17.9736 20.0216 17.9736Z" fill="#AD2131" stroke="#AD2131" stroke-width="0.254121"/>
<path d="M11.2287 17.9736C11.616 17.9736 11.9418 17.6745 11.9418 17.2913V15.6256C11.9418 15.2423 11.616 14.9433 11.2287 14.9433C10.8414 14.9433 10.5155 15.2423 10.5155 15.6256V17.2913C10.5155 17.6745 10.8414 17.9736 11.2287 17.9736Z" fill="#AD2131" stroke="#AD2131" stroke-width="0.254121"/>
</svg>
