<svg width="25" height="25" viewBox="0 0 25 25" fill="none" xmlns="http://www.w3.org/2000/svg">
<path d="M24.3414 22.5142L17.5553 15.7281C18.8822 14.09 19.6809 12.0074 19.6809 9.73989C19.6809 4.4835 15.4044 0.207031 10.148 0.207031C4.89165 0.207031 0.615234 4.4835 0.615234 9.73989C0.615234 14.9963 4.8917 19.2727 10.1481 19.2727C12.4156 19.2727 14.4982 18.474 16.1363 17.1471L22.9511 23.9618C23.1596 24.1411 23.8007 24.5413 24.3801 23.9618C24.8821 23.4598 24.5242 22.6971 24.3414 22.5142ZM10.1481 17.2658C5.99806 17.2658 2.62216 13.8899 2.62216 9.73989C2.62216 5.58986 5.99806 2.21396 10.1481 2.21396C14.2981 2.21396 17.674 5.58986 17.674 9.73989C17.674 13.8899 14.2981 17.2658 10.1481 17.2658Z" fill="white"/>
</svg>
