<svg width="30" height="31" viewBox="0 0 30 31" fill="none" xmlns="http://www.w3.org/2000/svg">
<path d="M27.4331 11.375C27.2907 11.2428 27.0945 11.1804 26.8998 11.2027H20.7339V8.69227C20.7339 6.00913 18.4401 3.8456 15.6251 3.8456C12.8101 3.8456 10.5162 6.00913 10.5162 8.69227V11.2027H4.34262L4.33581 11.2027C4.25277 11.2027 4.1528 11.2026 4.06191 11.2231C3.96843 11.2442 3.87271 11.2895 3.8055 11.3858C3.66458 11.5212 3.5982 11.7145 3.63131 11.9066L3.63129 11.9066L3.63177 11.9091L5.82965 23.2917L5.82966 23.2917C6.14899 24.9431 7.65126 26.1435 9.41041 26.1709V26.1709H9.41239H21.8376V26.171L21.8406 26.1709C23.6043 26.1298 25.103 24.9202 25.4204 23.264L25.4204 23.264L25.2956 23.2399L25.4204 23.2638L27.6183 11.9091L27.6183 11.9091L27.6187 11.9066C27.6527 11.7094 27.5818 11.5108 27.4331 11.375ZM27.4331 11.375C27.4332 11.3752 27.4334 11.3754 27.4336 11.3755L27.347 11.4685L27.4325 11.3746C27.4327 11.3747 27.4329 11.3749 27.4331 11.375ZM23.9987 23.0767L23.9985 23.0776C23.8132 24.0654 22.9089 24.7963 21.8371 24.8063H9.41292C8.34112 24.7963 7.43679 24.0654 7.25149 23.0776L7.25132 23.0767L5.20021 12.5673H26.0498L23.9987 23.0767ZM11.9425 8.69227C11.9425 6.77558 13.5846 5.21022 15.625 5.21022C17.6654 5.21022 19.3076 6.77558 19.3076 8.69227V11.2027H11.9425V8.69227Z" fill="white" stroke="white" stroke-width="0.254121"/>
<path d="M20.0216 17.9814C20.409 17.9814 20.7348 17.6824 20.7348 17.2991V15.6334C20.7348 15.2502 20.409 14.9511 20.0216 14.9511C19.6343 14.9511 19.3085 15.2502 19.3085 15.6334V17.2991C19.3085 17.2991 19.3085 17.2991 19.3085 17.2991C19.3084 17.6824 19.6344 17.9814 20.0216 17.9814Z" fill="white" stroke="white" stroke-width="0.254121"/>
<path d="M11.2287 17.9814C11.616 17.9814 11.9418 17.6824 11.9418 17.2991V15.6334C11.9418 15.2502 11.616 14.9511 11.2287 14.9511C10.8414 14.9511 10.5155 15.2502 10.5155 15.6334V17.2991C10.5155 17.6824 10.8414 17.9814 11.2287 17.9814Z" fill="white" stroke="white" stroke-width="0.254121"/>
</svg>
